<svg viewBox="0 0 100 68" fill="none" xmlns="http://www.w3.org/2000/svg">
  <path fill-rule="evenodd" clip-rule="evenodd" d="M17.1285 58.7741C17.1285 63.504 13.2941 67.3383 8.56423 67.3383C3.8623 67.3383 0 63.504 0 58.7741C0 54.0162 3.8623 50.2099 8.56423 50.2099C13.2941 50.2099 17.1285 54.0162 17.1285 58.7741Z" fill="#25CD93"/>
  <path fill-rule="evenodd" clip-rule="evenodd" d="M55.3876 15.4492H18.4439V2.09908H55.3876V15.4492Z" fill="#25CD93"/>
  <path fill-rule="evenodd" clip-rule="evenodd" d="M36.9158 39.2947H0V25.9446H36.9158V39.2947Z" fill="#25CD93"/>
  <path fill-rule="evenodd" clip-rule="evenodd" d="M94.7383 5.14973H93.7308V7.78058H91.3518V5.14973H82.0039V2.23901H91.3518V0H93.7308V2.23901H94.5984C97.9569 2.23901 99.972 3.83431 99.972 7.10887V8.50826H97.2852V7.69661C97.2852 5.6815 96.1657 5.12175 94.7383 5.14973Z" fill="#1D1D1B"/>
  <path fill-rule="evenodd" clip-rule="evenodd" d="M87.8813 18.6118C89.9244 18.6118 91.2679 16.9046 91.2679 15.2253C91.2679 13.4341 89.8405 11.9507 87.8813 11.9507C85.9222 11.9507 84.4668 13.4341 84.4668 15.2253C84.4668 17.0165 85.8382 18.6118 87.8813 18.6118ZM93.7308 21.5785H82.0039V18.6678H83.5712C82.3398 17.8561 81.752 16.2049 81.752 14.7775C81.752 11.6988 84.131 8.98404 87.8534 8.98404C91.6317 8.98404 93.9827 11.6709 93.9827 14.7495C93.9827 16.2329 93.3949 17.8561 92.1635 18.6678H93.7308V21.5785Z" fill="#1D1D1B"/>
  <path fill-rule="evenodd" clip-rule="evenodd" d="M87.8533 24.2653C91.6037 24.2653 93.9826 27.26 93.9826 30.6465C93.9826 32.6616 93.087 34.3129 91.7156 35.4324L90.0924 33.3053C90.82 32.7176 91.2678 31.71 91.2678 30.6745C91.2678 28.6594 89.8405 27.204 87.8533 27.204C85.8942 27.204 84.4668 28.6594 84.4668 30.6745C84.4668 31.71 84.9426 32.7176 85.6423 33.3053L84.019 35.4324C82.6756 34.3129 81.78 32.6616 81.78 30.6465C81.78 27.26 84.159 24.2653 87.8533 24.2653Z" fill="#1D1D1B"/>
  <path fill-rule="evenodd" clip-rule="evenodd" d="M91.3798 44.3325V41.8416H82.0039V38.9309H91.3798V36.8318H93.7308V38.9309H98.0409V41.8416H93.7308V44.3325H91.3798Z" fill="#1D1D1B"/>
  <path fill-rule="evenodd" clip-rule="evenodd" d="M93.5628 54.7159L90.7921 54.1562C91.1279 53.4845 91.2119 52.8407 91.2119 52.4209C91.2119 50.5178 89.3647 49.4542 86.0901 49.4542H82.0039V46.5435H93.7308V49.4542H91.1839C93.143 50.07 93.9827 51.3574 93.9827 52.7848C93.9827 53.5124 93.8147 54.2681 93.5628 54.7159Z" fill="#1D1D1B"/>
  <path fill-rule="evenodd" clip-rule="evenodd" d="M93.7307 67.5063L76.2944 60.2015V57.1508L82.8435 59.7817L93.7307 55.1357V58.2983L86.314 61.349L93.7307 64.3437V67.5063Z" fill="#1D1D1B"/>
</svg>
